<svg id="Capa_1" data-name="Capa 1" xmlns="http://www.w3.org/2000/svg" viewBox="0 0 400 400"><defs><style>.cls-1{fill:#000068;}</style></defs><title>5 dispositivos</title><path class="cls-1" d="M208.14,211.58a4.52,4.52,0,0,1-4.5,4.52H175.09a4.53,4.53,0,0,1-4.51-4.52v-7.52a4.52,4.52,0,0,1,4.51-4.51h28.55a4.52,4.52,0,0,1,4.5,4.51Zm-3-16.23H173.59a8.34,8.34,0,0,0-8.31,8.31V212a8.34,8.34,0,0,0,8.31,8.31h31.55a8.33,8.33,0,0,0,8.3-8.31v-8.32A8.33,8.33,0,0,0,205.14,195.35Z"/><path class="cls-1" d="M182.59,203.31h-8a2,2,0,1,0,0,4h8a2,2,0,0,0,0-4Z"/><path class="cls-1" d="M180,133.28a2.53,2.53,0,0,1-3.51.13l-1.89-1.76a2.5,2.5,0,0,1-.75-1.76,2.8,2.8,0,0,1,.75-1.89,26.34,26.34,0,0,1,37.4,0,2.58,2.58,0,0,1,.75,1.89,2.12,2.12,0,0,1-.75,1.76l-1.88,1.76a2.54,2.54,0,0,1-3.52-.13,17.91,17.91,0,0,0-13.17-5.65A18.92,18.92,0,0,0,180,133.28Zm28.61,5.66a7.36,7.36,0,0,0,5.14-2l1.89-1.75a7.27,7.27,0,0,0,2.38-5.41,7.7,7.7,0,0,0-2.13-5.4,31.62,31.62,0,0,0-22.46-9.3,31.11,31.11,0,0,0-22.34,9.3,6.89,6.89,0,0,0-2.13,5.4,7.48,7.48,0,0,0,2.38,5.41l1.88,1.75a7.61,7.61,0,0,0,10.54-.25,13.62,13.62,0,0,1,19.45.13A7.38,7.38,0,0,0,208.57,138.94Z"/><path class="cls-1" d="M230.4,114.43l-1.88,1.63a2.42,2.42,0,0,1-3.51-.12,43.9,43.9,0,0,0-63.25,0,2.54,2.54,0,0,1-3.51.12l-1.88-1.75a2.52,2.52,0,0,1-.75-1.76,3,3,0,0,1,.62-1.76,51.47,51.47,0,0,1,74.29,0,2,2,0,0,1,.63,1.76A2.53,2.53,0,0,1,230.4,114.43Zm3.77-7a56.37,56.37,0,0,0-81.57,0,8,8,0,0,0-2.13,5.41,7.17,7.17,0,0,0,2.39,5.28l1.75,1.75a7.39,7.39,0,0,0,5.15,2,7.8,7.8,0,0,0,5.52-2.27,38.77,38.77,0,0,1,56.09-.12,7.39,7.39,0,0,0,10.54.25l1.76-1.76a7.18,7.18,0,0,0,2.38-5.28A6.33,6.33,0,0,0,234.17,107.39Z"/><path class="cls-1" d="M197.15,149a3.77,3.77,0,1,1-7.53,0,3.77,3.77,0,1,1,7.53,0Zm-12.55,0a8.79,8.79,0,1,0,8.79-8.8A8.73,8.73,0,0,0,184.6,149Z"/><path class="cls-1" d="M189.79,243.89A36.21,36.21,0,1,1,226,207.68a36.24,36.24,0,0,1-36.19,36.21m0-65.48a29.27,29.27,0,1,0,29.26,29.27A29.29,29.29,0,0,0,189.79,178.41Z"/><path class="cls-1" d="M284.06,182.87a22.53,22.53,0,1,1,22.51-22.53,22.55,22.55,0,0,1-22.51,22.53m0-38.12a15.6,15.6,0,1,0,15.58,15.59A15.61,15.61,0,0,0,284.06,144.75Z"/><path class="cls-1" d="M293.89,282a22.56,22.56,0,0,1-21.19-30.22A22.5,22.5,0,1,1,293.89,282m-5.33-7.88a15.59,15.59,0,1,0-9.34-20A15.55,15.55,0,0,0,288.56,274.07Z"/><path class="cls-1" d="M181.31,333a22.53,22.53,0,1,1,21.19-14.86A22.48,22.48,0,0,1,181.31,333M176,325.15a15.57,15.57,0,1,0-8.81-8A15.6,15.6,0,0,0,176,325.15Z"/><path class="cls-1" d="M110.15,194.46a22.53,22.53,0,1,1,7.7-43.71,22.53,22.53,0,0,1-7.7,43.71m-5.28-7.87a15.59,15.59,0,1,0-1.3-28.78,15.59,15.59,0,0,0,1.3,28.78Z"/><path class="cls-1" d="M222.52,195.06a3.47,3.47,0,0,1-1.56-6.57l44.66-22.42a3.47,3.47,0,0,1,3.11,6.2l-44.66,22.42a3.46,3.46,0,0,1-1.55.37"/><path class="cls-1" d="M276.81,254.39a3.38,3.38,0,0,1-1.54-.36l-57.72-28.68a3.47,3.47,0,0,1,3.09-6.21l57.72,28.68a3.47,3.47,0,0,1-1.55,6.57"/><path class="cls-1" d="M82.86,242.53a22.57,22.57,0,1,1-4.07,8.87,22.49,22.49,0,0,1,4.07-8.87m9.49.54a15.6,15.6,0,1,0,21.55,4.66A15.61,15.61,0,0,0,92.35,243.07Z"/><path class="cls-1" d="M116.35,244.63a3.34,3.34,0,0,0-1.22,1,3.47,3.47,0,0,0,4.29,5.22l44.65-22.06c-.93-2.16-2.28-4-3.37-6.07Z"/><path class="cls-1" d="M182.9,295h-.29a3.47,3.47,0,0,1-3.17-3.75L183.66,240a3.51,3.51,0,0,1,3.73-3.17,3.47,3.47,0,0,1,3.17,3.74l-4.21,51.21A3.47,3.47,0,0,1,182.9,295"/><path class="cls-1" d="M160,197.75a3.39,3.39,0,0,1-1.42-.3l-31-13.91a3.46,3.46,0,0,1,2.84-6.32l31,13.9a3.46,3.46,0,0,1-1.41,6.63"/></svg>