<svg id="Capa_1" data-name="Capa 1" xmlns="http://www.w3.org/2000/svg" viewBox="0 0 400 400"><defs><style>.cls-1{fill:#000068;}</style></defs><title>Bateria</title><polygon class="cls-1" points="230.56 265.73 230.56 205.32 260.13 205.32 230.56 265.73"/><polyline class="cls-1" points="196.68 265.71 196.68 205.3 226.24 205.3 226.24 265.71 196.68 265.71"/><polyline class="cls-1" points="162.79 265.69 162.79 205.28 192.36 205.28 192.36 265.69 162.79 265.69"/><polyline class="cls-1" points="128.9 265.68 128.9 205.27 158.47 205.27 158.47 265.68 128.9 265.68"/><path class="cls-1" d="M128.61,268.41a4.14,4.14,0,0,1-4.13-4.14V206.82a4.14,4.14,0,0,1,4.13-4.14H261.3a4.14,4.14,0,0,1,4.13,4.14v57.45a4.14,4.14,0,0,1-4.13,4.14H128.61m141.78-4.14v-9.22h8.76a1.32,1.32,0,0,0,1.32-1.33V217.37a1.33,1.33,0,0,0-1.32-1.33h-8.76v-9.22a9.11,9.11,0,0,0-9.09-9.11H128.61a9.11,9.11,0,0,0-9.08,9.11v57.45a9.11,9.11,0,0,0,9.08,9.11H261.3A9.11,9.11,0,0,0,270.39,264.27Z"/><path class="cls-1" d="M128.48,172.9a1.3,1.3,0,0,1-.92-.37,1.21,1.21,0,0,1-.39-.94V146.81L120,152.27a1.11,1.11,0,0,1-1,.27,1.48,1.48,0,0,1-.86-.58l-3.07-4a1.41,1.41,0,0,1-.24-1,1.15,1.15,0,0,1,.6-.86l12-9.27a1.94,1.94,0,0,1,.6-.29,2.51,2.51,0,0,1,.65-.08h6.51a1.32,1.32,0,0,1,.91.37,1.21,1.21,0,0,1,.39.94v33.84a1.21,1.21,0,0,1-.39.94,1.28,1.28,0,0,1-.91.37Z"/><path class="cls-1" d="M143.42,172.9a1.33,1.33,0,0,1-1-.37,1.21,1.21,0,0,1-.39-.94V167.9a4.68,4.68,0,0,1,.21-1.12,2.73,2.73,0,0,1,1.09-1.43l5.42-5.32q4.16-3.17,6.84-5.39a24.77,24.77,0,0,0,4-3.93,5.49,5.49,0,0,0,1.3-3.23,4.69,4.69,0,0,0-.91-2.94,3.77,3.77,0,0,0-3.15-1.17,4.64,4.64,0,0,0-2.53.65,4.3,4.3,0,0,0-1.54,1.69,8.18,8.18,0,0,0-.72,2.14,1.52,1.52,0,0,1-.71.94,2.28,2.28,0,0,1-1.06.26h-6.51a1.08,1.08,0,0,1-1.1-1.1,11.58,11.58,0,0,1,1.07-4.68,12.14,12.14,0,0,1,2.86-3.88,13.06,13.06,0,0,1,4.43-2.63,16.78,16.78,0,0,1,5.81-.94,18.06,18.06,0,0,1,7.52,1.41,10.46,10.46,0,0,1,4.71,3.93,10.69,10.69,0,0,1,1.62,5.91,10.33,10.33,0,0,1-1.12,4.76,16.15,16.15,0,0,1-3.18,4.22,50.47,50.47,0,0,1-4.87,4.14L156.75,165h13.39a1.37,1.37,0,0,1,1,.37,1.21,1.21,0,0,1,.39.93v5.26a1.21,1.21,0,0,1-.39.94,1.33,1.33,0,0,1-1,.37Z"/><path class="cls-1" d="M189.25,172.9a1.24,1.24,0,0,1-.94-.37,1.27,1.27,0,0,1-.37-.94V137.23a1.27,1.27,0,0,1,1.31-1.31h6.66a1.29,1.29,0,0,1,.94.37,1.27,1.27,0,0,1,.36.94v11.61a10.34,10.34,0,0,1,3.47-2.58,11.14,11.14,0,0,1,4.76-1,10.68,10.68,0,0,1,5.39,1.35,9.38,9.38,0,0,1,3.72,4,13.87,13.87,0,0,1,1.36,6.44v14.52a1.27,1.27,0,0,1-1.3,1.31h-6.72a1.26,1.26,0,0,1-.91-.37,1.21,1.21,0,0,1-.39-.94V157.38a5.55,5.55,0,0,0-1.17-3.78,4.42,4.42,0,0,0-3.47-1.33,4.59,4.59,0,0,0-3.43,1.33,5.18,5.18,0,0,0-1.31,3.78v14.21a1.27,1.27,0,0,1-.36.94,1.25,1.25,0,0,1-.94.37Z"/><path class="cls-1" d="M223.09,172.9a1.27,1.27,0,0,1-1.3-1.31V147.12a1.26,1.26,0,0,1,.37-.91,1.21,1.21,0,0,1,.93-.39h6a1.23,1.23,0,0,1,.94.39,1.29,1.29,0,0,1,.36.91v2.08a9.86,9.86,0,0,1,3.36-2.5,10.57,10.57,0,0,1,4.4-.88h2.3a1.31,1.31,0,0,1,.91.36,1.24,1.24,0,0,1,.39.94v5.36a1.35,1.35,0,0,1-1.3,1.31h-5.06a4.07,4.07,0,0,0-4.47,4.47v13.33a1.21,1.21,0,0,1-.39.94,1.37,1.37,0,0,1-1,.37Z"/><path class="cls-1" d="M256.58,173.42a18.92,18.92,0,0,1-5.76-.76,13.15,13.15,0,0,1-3.85-1.85,8.36,8.36,0,0,1-2.21-2.26,4.43,4.43,0,0,1-.78-2,1.09,1.09,0,0,1,.36-1,1.28,1.28,0,0,1,.89-.39h5.93a.63.63,0,0,1,.26.05l.32.21a8.89,8.89,0,0,1,1.35.91,7.08,7.08,0,0,0,1.56,1,5,5,0,0,0,2.14.42,4.79,4.79,0,0,0,2.44-.57,1.87,1.87,0,0,0,1-1.72,2,2,0,0,0-.46-1.38,4.86,4.86,0,0,0-1.91-1.07,29.29,29.29,0,0,0-4.29-1,21.19,21.19,0,0,1-4.74-1.64,7.88,7.88,0,0,1-3.12-2.65,7.05,7.05,0,0,1-1.1-4,6.85,6.85,0,0,1,1.36-4,9.84,9.84,0,0,1,3.95-3.15,15.11,15.11,0,0,1,6.41-1.22,17.29,17.29,0,0,1,5.23.7,13.35,13.35,0,0,1,3.75,1.8,9.07,9.07,0,0,1,2.32,2.24,4.14,4.14,0,0,1,.83,2.08,1.2,1.2,0,0,1-1.14,1.3h-5.42a1.25,1.25,0,0,1-.42-.08,1.51,1.51,0,0,1-.36-.18,6.94,6.94,0,0,1-1.25-.83,7.48,7.48,0,0,0-1.46-.94,4.59,4.59,0,0,0-2.08-.42,3.4,3.4,0,0,0-2.19.63,2,2,0,0,0-.78,1.61,2,2,0,0,0,.44,1.25,4,4,0,0,0,1.83,1,34.68,34.68,0,0,0,4.29,1,16.34,16.34,0,0,1,5.73,1.85,7.83,7.83,0,0,1,3,3,7.61,7.61,0,0,1,.89,3.57,7.07,7.07,0,0,1-1.49,4.43,9.48,9.48,0,0,1-4.4,3A20.69,20.69,0,0,1,256.58,173.42Z"/><path class="cls-1" d="M275.27,172.9a1.27,1.27,0,0,1-1.3-1.31V165a1.26,1.26,0,0,1,.37-.91,1.21,1.21,0,0,1,.93-.39h6.56a1.31,1.31,0,0,1,1,.39,1.24,1.24,0,0,1,.39.91v6.61a1.21,1.21,0,0,1-.39.94,1.34,1.34,0,0,1-1,.37Z"/></svg>