<?xml version="1.0" standalone="no"?>
<!DOCTYPE svg PUBLIC "-//W3C//DTD SVG 20010904//EN"
 "http://www.w3.org/TR/2001/REC-SVG-20010904/DTD/svg10.dtd">
<svg version="1.0" xmlns="http://www.w3.org/2000/svg"
 width="982.000000pt" height="526.000000pt" viewBox="0 0 982.000000 526.000000"
 preserveAspectRatio="xMidYMid meet">

<g transform="translate(0.000000,526.000000) scale(0.100000,-0.100000)"
fill="#000000" stroke="none">
<path d="M295 5237 c-115 -39 -199 -111 -248 -215 -29 -61 -32 -76 -32 -162 0
-175 -79 -85 1063 -1217 2452 -2433 3570 -3537 3611 -3565 126 -88 316 -88
442 0 41 28 1162 1135 3601 3555 1153 1143 1073 1052 1073 1227 0 86 -3 101
-32 162 -40 85 -106 151 -191 191 -61 29 -75 32 -167 32 -175 0 -125 39 -943
-748 -2635 -2537 -3555 -3422 -3562 -3422 -4 0 -966 923 -2139 2052 -2393
2304 -2183 2114 -2350 2120 -52 2 -102 -2 -126 -10z"/>
</g>
</svg>
