<svg id="Capa_1" data-name="Capa 1" xmlns="http://www.w3.org/2000/svg" viewBox="0 0 400 400"><defs><style>.cls-1{fill:#000068;}</style></defs><title>Economico</title><path class="cls-1" d="M257.49,136.87a5.55,5.55,0,1,1-5.56,5.55A5.56,5.56,0,0,1,257.49,136.87Zm0,18.21a12.66,12.66,0,1,0-12.69-12.66A12.69,12.69,0,0,0,257.49,155.08Zm21.4,78.85a14.2,14.2,0,0,1-3.34,11.31c-3.18,3.67-8.46,6.13-14.47,6.82v4.51a3.56,3.56,0,0,1-7.12,0V252c-8.91-1.22-15.82-6.83-17.83-14.84a3.57,3.57,0,0,1,6.92-1.72c1.84,7.38,9.29,9.84,15.11,9.7,5-.12,9.71-1.9,12-4.54a7.12,7.12,0,0,0,1.65-5.82c-.66-5.46-5.23-8.6-14.82-10.17-15.25-2.49-18.8-10.21-19.09-16.24-.41-8.35,5.46-15.36,14.59-17.43.48-.1,1-.2,1.47-.28V186a3.56,3.56,0,0,1,7.12,0v4.59A20.26,20.26,0,0,1,277.26,203a3.56,3.56,0,0,1-6.57,2.75c-3.09-7.34-10.58-9.24-16.62-7.87-4.57,1-9.34,4.24-9.06,10.15.09,1.85.37,7.48,13.14,9.57C262.88,218.38,277.28,220.73,278.89,233.93ZM300.65,282l-85,0a14.2,14.2,0,0,0,0-14.4,14.26,14.26,0,0,0,9.89-23.41,14.26,14.26,0,0,0-1.56-25.4,14.17,14.17,0,0,0,2.72-8.37,14.32,14.32,0,0,0-14.32-14.28h-4.23l0-39.91a5.94,5.94,0,0,1,2.07-4.64l34.64-31.09c4.75-4.26,8.41-6,12.63-6h0c4.22,0,7.87,1.73,12.62,6l34.67,31.07a5.92,5.92,0,0,1,2.07,4.63l0,119.55A6.24,6.24,0,0,1,300.65,282ZM156,282c-12.33,0-20.5-3-28.39-6-2.39-.89-4.83-1.8-7.36-2.61V214.26h.34a16.9,16.9,0,0,0,14.52-7.51c.67-.95,1.26-1.81,1.79-2.59,4.79-7,4.79-7,12.16-11.77,14.23-9.28,15.28-13.89,19.7-33.29.07-.29.13-.58.2-.87a12.42,12.42,0,0,1,6.08,7.66c3.37,10.53-1.94,26.74-6.08,31.52a3.53,3.53,0,0,0-.55,3.8,3.57,3.57,0,0,0,3.24,2.08h40.74a7.18,7.18,0,1,1,0,14.35H184.3a3.56,3.56,0,1,0,0,7.11h34a7.18,7.18,0,1,1,0,14.36h-34a3.56,3.56,0,1,0,0,7.11h30.27a7.18,7.18,0,1,1,0,14.36H184.3a3.55,3.55,0,1,0,0,7.1h19a7.18,7.18,0,1,1,0,14.36Zm-42.88,2.55a.93.93,0,0,1-.92.92H94a.93.93,0,0,1-.92-.92V206.3a.93.93,0,0,1,.92-.92H112.2a.93.93,0,0,1,.92.92ZM314,156.23a13,13,0,0,0-4.43-9.92l-34.66-31.07c-4.32-3.86-9.75-7.81-17.39-7.81h0c-7.65,0-13.09,4-17.4,7.82l-34.64,31.1a13,13,0,0,0-4.42,9.92v39.91H178c4.16-8.62,7.06-22.24,3.8-32.44a19.57,19.57,0,0,0-14.59-13.69,3.56,3.56,0,0,0-2.72.43,3.52,3.52,0,0,0-1.6,2.22c-.4,1.72-.76,3.32-1.11,4.83-4.28,18.79-4.83,21.21-16.65,28.91-8.35,5.45-8.94,6.15-14.14,13.7-.53.78-1.11,1.63-1.77,2.57-2.1,3-4.79,4.4-8.7,4.44h-.3v-.85a8,8,0,0,0-8-8H94a8,8,0,0,0-8,8v78.29a8,8,0,0,0,8,8H112.2a8,8,0,0,0,8-8V281c1.6.56,3.21,1.15,4.86,1.77,8.1,3,17.27,6.43,30.89,6.43h47.3A14.32,14.32,0,0,0,209,288a13.42,13.42,0,0,0,5.46,1.17h0l86.2,0A13.38,13.38,0,0,0,314,275.77Z"/></svg>