<?xml version="1.0" standalone="no"?>
<!DOCTYPE svg PUBLIC "-//W3C//DTD SVG 20010904//EN"
 "http://www.w3.org/TR/2001/REC-SVG-20010904/DTD/svg10.dtd">
<svg version="1.0" xmlns="http://www.w3.org/2000/svg"
 width="489.000000pt" height="511.000000pt" viewBox="0 0 489.000000 511.000000"
 preserveAspectRatio="xMidYMid meet">

<g transform="translate(0.000000,511.000000) scale(0.100000,-0.100000)"
fill="#000000" stroke="none">
<path d="M681 4864 c-199 -54 -347 -190 -423 -390 l-23 -59 -3 -1718 c-3
-1916 -7 -1781 68 -1926 69 -132 199 -241 349 -293 l66 -23 1005 0 1005 0 -2
934 c-1 513 -5 937 -10 942 -5 5 -89 10 -188 11 l-180 3 -3 300 c-1 165 0 315
3 333 l6 32 178 0 c131 0 181 3 189 13 6 7 12 127 15 307 4 261 7 304 26 375
64 238 198 396 402 475 139 53 214 61 599 58 l345 -3 0 -325 0 -325 -225 -5
c-207 -5 -228 -7 -266 -27 -78 -42 -87 -68 -96 -297 -5 -111 -6 -211 -3 -223
l5 -23 296 0 296 0 -7 -92 c-4 -51 -19 -201 -33 -333 l-27 -240 -260 -5 -260
-5 -3 -942 -2 -943 298 0 c167 0 324 5 358 11 32 5 100 30 149 54 146 70 250
187 307 345 l23 65 0 1740 0 1740 -23 67 c-60 173 -209 322 -381 381 l-66 22
-1725 2 c-1484 2 -1733 0 -1779 -13z"/>
</g>
</svg>
