<svg id="Capa_1" data-name="Capa 1" xmlns="http://www.w3.org/2000/svg" viewBox="0 0 400 400"><defs><style>.cls-1{fill:#000068;}</style></defs><title>Facil</title><path class="cls-1" d="M268.94,137.75a7.9,7.9,0,0,1,5.56,13.46L235.78,190a4.3,4.3,0,0,0,6.08,6.08A7.87,7.87,0,0,1,253,207.17l-4.31,4.31a4.31,4.31,0,0,0,6.09,6.09A7.87,7.87,0,0,1,265.9,228.7l-4.31,4.3a4.31,4.31,0,0,0,6.09,6.09,7.87,7.87,0,0,1,11.12,11.15L240.08,289l-8.71,8.71a27,27,0,0,1-38.22,0l-33.06-33.09-18.37-55.1a4.6,4.6,0,0,0-1-1.68l-21.3-21.31,4.68-4.67a7.34,7.34,0,0,1,3.88-1,31.23,31.23,0,0,1,8.89,1.25c6.74,1.83,14.3,5.73,19.08,10.51,2.25,2.27,7.26,9.87,11.14,16.49s7,12.49,7,12.49a4.3,4.3,0,0,0,6.84,1l82.49-82.53A7.87,7.87,0,0,1,268.94,137.75Zm0-8.55a16.42,16.42,0,0,0-11.65,4.8l-78.47,78.5c-1.3-2.37-1.94-3.63-4.34-7.75-4-6.81-8.45-14.19-12.51-18.26-6.21-6.22-14.82-10.52-22.89-12.73a39,39,0,0,0-11.48-1.53c-3.56.14-7,.89-9.63,3.5l-7.71,7.72a4.32,4.32,0,0,0,0,6.1l23.61,23.63,18.37,55.1a4.27,4.27,0,0,0,1,1.68l33.78,33.8a35.68,35.68,0,0,0,50.39,0l7.44-7.45h-1.78a4.32,4.32,0,0,0,3-1.26l38.73-38.74a16.59,16.59,0,0,0,0-23.31,16,16,0,0,0-9.18-4.32,16.51,16.51,0,0,0-3.73-17.2,16,16,0,0,0-9.18-4.32,16.51,16.51,0,0,0-3.73-17.2,15.92,15.92,0,0,0-7.19-3.94l28.71-28.72a16.45,16.45,0,0,0-11.65-28.1Zm-43.85-4.37a4.18,4.18,0,0,0-3,1.3l-17.21,17.22a4.3,4.3,0,1,0,6.08,6.08l17.21-17.22a4.3,4.3,0,0,0-3.12-7.38Zm-77.42,0a4.3,4.3,0,0,0-3,7.38l17.21,17.22a4.3,4.3,0,1,0,6.08-6.08l-17.21-17.22A4.24,4.24,0,0,0,147.67,124.83Zm38.71-13a4.34,4.34,0,0,0-4.24,4.38v25.82a4.31,4.31,0,1,0,8.61,0V116.26a4.32,4.32,0,0,0-4.37-4.38Z"/></svg>