<?xml version="1.0" standalone="no"?>
<!DOCTYPE svg PUBLIC "-//W3C//DTD SVG 20010904//EN"
 "http://www.w3.org/TR/2001/REC-SVG-20010904/DTD/svg10.dtd">
<svg version="1.0" xmlns="http://www.w3.org/2000/svg"
 width="2000.000000pt" height="2000.000000pt" viewBox="0 0 2000.000000 2000.000000"
 preserveAspectRatio="xMidYMid meet">

<g transform="translate(0.000000,2000.000000) scale(0.100000,-0.100000)"
fill="#000000" stroke="none">
<path d="M7650 19833 c-532 -5 -1514 -38 -1915 -63 -1020 -66 -1838 -262
-2580 -619 -490 -236 -894 -523 -1303 -926 -197 -193 -302 -308 -450 -493
-560 -701 -940 -1644 -1096 -2722 -63 -433 -94 -910 -128 -1995 -18 -563 -18
-5463 0 -6025 42 -1336 85 -1854 198 -2405 179 -871 499 -1617 951 -2218 149
-199 269 -335 487 -553 292 -292 502 -464 813 -668 602 -393 1380 -681 2206
-816 508 -82 951 -114 2162 -152 565 -18 5441 -18 6015 0 762 24 1259 48 1574
78 1506 141 2656 631 3563 1518 925 904 1445 2079 1592 3596 34 348 56 783 83
1620 18 559 18 5461 0 6020 -15 480 -39 1039 -52 1255 -59 919 -211 1614 -515
2355 -46 111 -188 400 -255 515 -82 143 -234 375 -324 495 -255 341 -631 724
-967 986 -755 590 -1741 966 -2889 1103 -479 57 -1228 93 -2325 111 -503 8
-4080 10 -4845 3z m5260 -1783 c730 -20 1267 -47 1555 -76 759 -76 1411 -274
1893 -575 323 -201 656 -508 892 -824 394 -527 632 -1220 724 -2110 29 -286
55 -810 78 -1600 17 -584 17 -5146 0 -5730 -23 -790 -48 -1293 -78 -1595 -93
-935 -348 -1640 -791 -2196 -552 -691 -1295 -1097 -2313 -1264 -380 -63 -709
-87 -1605 -120 -764 -28 -3802 -39 -5435 -20 -1923 22 -2616 79 -3265 265
-628 180 -1078 438 -1500 860 -355 355 -571 692 -750 1169 -175 468 -275 979
-315 1611 -51 821 -69 1920 -69 4155 0 2235 18 3334 69 4155 66 1042 311 1835
750 2420 235 314 569 623 888 821 469 293 1078 484 1807 568 413 48 1260 84
2270 96 872 11 4737 4 5195 -10z"/>
<path d="M15045 16415 c-157 -28 -327 -98 -457 -187 -76 -51 -215 -183 -273
-258 -265 -345 -316 -824 -130 -1217 212 -449 691 -725 1172 -675 279 29 505
131 700 316 154 146 249 293 314 484 80 237 79 513 -2 757 -136 406 -503 715
-932 785 -85 14 -307 11 -392 -5z"/>
<path d="M9610 15039 c-853 -68 -1659 -342 -2370 -807 -301 -196 -536 -388
-801 -652 -278 -277 -451 -488 -654 -795 -415 -629 -678 -1317 -784 -2050 -41
-280 -46 -364 -46 -735 0 -371 5 -455 46 -735 134 -924 519 -1781 1133 -2520
132 -158 448 -474 611 -609 342 -285 677 -502 1060 -687 537 -259 1069 -409
1700 -479 160 -18 661 -24 847 -11 1097 81 2097 490 2938 1205 143 121 433
414 561 566 619 732 1013 1604 1148 2535 41 280 46 364 46 735 0 229 -5 408
-13 480 -73 661 -224 1190 -497 1745 -256 521 -549 929 -965 1345 -415 416
-813 702 -1335 960 -595 294 -1195 458 -1864 510 -156 12 -607 11 -761 -1z
m800 -1784 c758 -102 1407 -426 1936 -966 734 -751 1060 -1788 888 -2829 -157
-950 -729 -1786 -1561 -2281 -868 -516 -1947 -602 -2882 -228 -669 268 -1235
748 -1604 1363 -235 391 -377 803 -444 1286 -24 176 -24 624 0 800 108 774
428 1419 968 1945 385 376 831 640 1340 795 206 62 502 117 719 134 114 8 528
-4 640 -19z"/>
</g>
</svg>
