<svg id="Capa_1" data-name="Capa 1" xmlns="http://www.w3.org/2000/svg" viewBox="0 0 400 400"><defs><style>.cls-1{fill:#000068;}</style></defs><title>Liviano</title><path class="cls-1" d="M309.59,207.13c-.42,2.42-3.73,11.73-28.71,30.23-18.12,13.43-41.35,26.94-65.44,38.06l-.07,0c-7.59,3.74-18.09,1.24-30.25-1.66-16.93-4-37.74-9-61.45-.3V228.4a72.81,72.81,0,0,1,57.79-17,169.83,169.83,0,0,1,17.61,4c7.88,2.12,16.17,3.07,24.18,4,12.78,1.46,24.85,2.84,28.43,8.84a7.05,7.05,0,0,1,.65,5.78c-2.19,6.73-15.16,5.63-30.18,4.35-16.06-1.36-34.26-2.91-47.71,4.46a3.37,3.37,0,1,0,3.24,5.92c11.67-6.39,28.79-4.93,43.9-3.65,8.36.71,16.26,1.38,22.57.66,2.94-.34,11.9-1.36,14.59-9.65a13.92,13.92,0,0,0,0-8.68,242.81,242.81,0,0,1,21.67-14.52c21.62-12.65,27.36-9.63,28.61-8.4A2.65,2.65,0,0,1,309.59,207.13ZM106.74,286.89H99.92A10.2,10.2,0,0,1,89.73,276.7V226.91a10.2,10.2,0,0,1,10.19-10.2h6.82a10.2,10.2,0,0,1,10.18,10.2V276.7A10.2,10.2,0,0,1,106.74,286.89Zm207-87.23c-6-6-18.06-3.54-36.75,7.38a244.66,244.66,0,0,0-21.89,14.64c-6.27-6.19-17.88-7.52-31-9-7.77-.89-15.8-1.81-23.19-3.8a177.13,177.13,0,0,0-18.35-4.15h-.08a80.05,80.05,0,0,0-47.18,7.83,77.91,77.91,0,0,0-12.77,8.08A17,17,0,0,0,106.74,210H99.92A17,17,0,0,0,83,226.91V276.7a17,17,0,0,0,16.93,16.94h6.82A17,17,0,0,0,123.13,281a72.64,72.64,0,0,1,31.6-5.43c10.38.45,20.18,2.78,28.83,4.84,8.2,1.95,15.72,3.74,22.56,3.74a27.12,27.12,0,0,0,12.19-2.58c24.47-11.3,48.12-25.06,66.59-38.74,24-17.81,30.3-28.59,31.33-34.5A9.27,9.27,0,0,0,313.71,199.66Z"/><path class="cls-1" d="M123.69,182.82a3,3,0,0,0,4.24.41,165.33,165.33,0,0,1,23.6-15.65,68.78,68.78,0,0,0,14.93,9.4,55.48,55.48,0,0,0,7.9,2.93,3,3,0,0,0,3.72-2.06,2.81,2.81,0,0,0,0-1.6c-.19-.8-.34-1.64-.45-2.46,3.38,3.1,7.67,6.11,11.44,6.6,6.09.76,12.25-.44,18.54-1.86a123.06,123.06,0,0,0,27.4-9.94,3.94,3.94,0,0,0,2.43-3.32c.14-2.5-2-3.88-4.62-5.64-.34-.22-.7-.45-1-.7,9,.72,18.4.41,26.64-4.37,31.78-18.44,50.62-46.87,51.4-48.07a3,3,0,0,0,.35-2.59,2.93,2.93,0,0,0-1.8-1.88A175.05,175.05,0,0,0,271,93.64c-3.14-.37-15,3.24-25.72,10.12a74,74,0,0,1,5.14-6.44,3,3,0,0,0-.21-4.26,2.94,2.94,0,0,0-2-.79c-12.73,0-29.54.81-46.63,6.82-7.9,2.76-14.51,11.81-18.91,20.12.35-4,.92-7.77,1.28-9.75a3,3,0,0,0-4.48-3.15C147.6,125,147.74,157.64,148,162.7a167.86,167.86,0,0,0-23.86,15.87,3,3,0,0,0-.42,4.25M177,115.11c-.68,5.66-1.24,13.63.07,18.93a3,3,0,0,0,5.83.06c2.36-8.75,11.3-26,20.66-29.32a125.41,125.41,0,0,1,38.17-6.38c-3.27,4.33-7.35,10.61-8.18,16a3,3,0,0,0,2.52,3.43,3,3,0,0,0,2.67-.94c10.46-11.39,29.08-17.27,31.53-17.24a183.87,183.87,0,0,1,32.27,6.78c-5.86,7.93-22.67,28.75-47.1,42.93-9.24,5.35-21.19,3.93-31.73,2.68a3,3,0,0,0-3,4.51,26.15,26.15,0,0,0,8.7,8.07,115.52,115.52,0,0,1-23.11,8.05c-5.75,1.29-11.34,2.4-16.46,1.74-3.87-.49-10.94-7.37-12.62-10a3,3,0,0,0-5.53,1.14,30.86,30.86,0,0,0-.23,7.06,61.87,61.87,0,0,1-14.17-8.11c36.74-19.48,85.15-35.19,105-40.67a3,3,0,1,0-1.6-5.82c-20.16,5.56-69.35,21.56-106.79,41.47A56.15,56.15,0,0,1,177,115.11Z"/></svg>