<svg id="Capa_1" data-name="Capa 1" xmlns="http://www.w3.org/2000/svg" viewBox="0 0 400 400"><defs><style>.cls-1{fill:#000068;}</style></defs><title>Paises</title><path class="cls-1" d="M254.21,128.94a6.44,6.44,0,1,1,6.43,6.43A6.45,6.45,0,0,1,254.21,128.94Zm18.45,0a12,12,0,1,0-12,12A12,12,0,0,0,272.66,128.94Z"/><path class="cls-1" d="M280.43,197.25H236a114.92,114.92,0,0,0-7.2-36.19l.38-.05a148.9,148.9,0,0,0,24-5.45c2.66,3.4,4.83,5.88,5.45,6.58l2.09,2.37,2.1-2.37c.57-.65,2.47-2.82,4.85-5.82A79.87,79.87,0,0,1,280.43,197.25ZM206,280.4a160.37,160.37,0,0,0,20.76-36l1.6.22c12.29,1.8,23.28,4.77,32.06,8.62A80.48,80.48,0,0,1,206,280.4Zm-66.51-27.19c8.78-3.84,19.76-6.8,32-8.6l1.6-.22a160.72,160.72,0,0,0,20.77,36A80.52,80.52,0,0,1,139.45,253.21Zm-22.91-99.63a15.72,15.72,0,0,1,15.71,15.71c0,6.6-10,19.91-15.71,26.82-5.76-6.91-15.71-20.22-15.71-26.82A15.72,15.72,0,0,1,116.54,153.58Zm77.32-33.89a164.29,164.29,0,0,0-16.1,25.84q-2.53,5.1-4.63,10.18l-1.64-.23c-12.31-1.81-23.31-4.78-32.1-8.63A80.17,80.17,0,0,1,193.86,119.69Zm6,37.81a199.91,199.91,0,0,1-21-1.09,157.17,157.17,0,0,1,21-35.37,156.86,156.86,0,0,1,21,35.37A199.72,199.72,0,0,1,199.91,157.5Zm-30.47,39.75a111.07,111.07,0,0,1,7.35-35.45,205.61,205.61,0,0,0,23.12,1.29A205.44,205.44,0,0,0,223,161.8a110.75,110.75,0,0,1,7.35,35.45Zm-5.59,5.59A116,116,0,0,0,171,239l-.34.05c-13.43,2-25.43,5.3-34.9,9.66a80.14,80.14,0,0,1-16.39-45.9ZM170.68,161l.37.05a115.2,115.2,0,0,0-7.2,36.19h-41c5.72-7.12,15-19.92,15-28a21.23,21.23,0,0,0-5.08-13.79q1.41-2.13,3-4.17C145.2,155.7,157.22,159,170.68,161Zm29.22,96c-6.79-8.12-15.7-20.8-15.7-26.83a15.71,15.71,0,0,1,31.42,0C215.62,236.78,205.67,250.09,199.9,257Zm-21-13.32c1.42-.15,2.86-.28,4.31-.4,5.25,9.21,13.25,18.4,14.55,19.87l2.1,2.36,2.09-2.36a136.8,136.8,0,0,0,14.56-19.87c1.44.12,2.88.25,4.3.4a157.55,157.55,0,0,1-21,35.37A157.09,157.09,0,0,1,179,243.68ZM223,238.29q-1.86-.21-3.75-.39a20.49,20.49,0,0,0,1.94-7.73,21.3,21.3,0,0,0-42.59,0,20.68,20.68,0,0,0,1.94,7.73q-1.89.18-3.75.39a111.13,111.13,0,0,1-7.36-35.45h60.93A110.86,110.86,0,0,1,223,238.29Zm57.41-35.45a80.2,80.2,0,0,1-16.37,45.91c-9.48-4.37-21.49-7.7-34.91-9.67l-.35-.05A116,116,0,0,0,236,202.84Zm-53.74-47.13q-2.09-5.09-4.63-10.18A162.88,162.88,0,0,0,206,119.7a80.38,80.38,0,0,1,33.43,10.09c.33,6,5.32,14.29,10.16,21a145.42,145.42,0,0,1-21.22,4.66Zm34-42.25a15.72,15.72,0,0,1,15.71,15.71c0,6.6-9.94,19.91-15.71,26.83-5.76-6.92-15.7-20.23-15.7-26.83A15.72,15.72,0,0,1,260.64,113.46Zm0-5.59A21.33,21.33,0,0,0,240,123.79a86.15,86.15,0,0,0-107.32,22.3c-1.46,1.81-2.84,3.7-4.15,5.63a21.29,21.29,0,0,0-33.33,17.57c0,10.15,14.79,27.87,18.53,32.19a86.16,86.16,0,1,0,157.4-49.87c5.18-7.09,10.77-16.2,10.77-22.44A21.32,21.32,0,0,0,260.64,107.87Z"/><path class="cls-1" d="M204,99c-2-.12-4.13-.19-6.18-.19h-.16V93.25h.16c2.17,0,4.36.06,6.53.19Zm12.58,1.57c-2.06-.39-4.17-.72-6.26-1l.69-5.55c2.21.28,4.44.63,6.62,1Zm12.28,3.15c-2-.65-4.05-1.25-6.09-1.77l1.39-5.41c2.15.55,4.32,1.18,6.43,1.86Zm11.79,4.67c-1.9-.9-3.86-1.75-5.82-2.52l2.06-5.2c2.07.82,4.13,1.72,6.14,2.67Z"/><path class="cls-1" d="M128.24,126.55A100.65,100.65,0,0,1,191.81,99l-.33-5.58a106.24,106.24,0,0,0-67.25,29.22l-.58-10-5.58.33,1.15,19.73L139,131.52l-.33-5.58Z"/><path class="cls-1" d="M99.18,197.21,93.59,197c.07-2.22.21-4.47.42-6.68l5.56.52C99.37,193,99.24,195.1,99.18,197.21ZM94,210.41c-.21-2.21-.35-4.46-.41-6.68l5.58-.17c.07,2.1.2,4.23.39,6.33Zm2.08,13.21c-.48-2.17-.9-4.38-1.25-6.57l5.52-.87c.33,2.08.73,4.17,1.19,6.22Zm3.74,12.85c-.76-2.09-1.45-4.23-2.07-6.37l5.36-1.55c.59,2,1.25,4,2,6Zm5.32,12.28c-1-2-2-4-2.86-6.06l5.13-2.22c.84,1.93,1.75,3.86,2.71,5.73Zm6.83,11.5c-1.25-1.83-2.46-3.73-3.59-5.64l4.8-2.86c1.07,1.82,2.22,3.62,3.41,5.35Z"/><path class="cls-1" d="M251.27,274.39l-.65,5.55,9.78,1.16a100.85,100.85,0,0,1-140.21-19.05l-4.42,3.42a107.4,107.4,0,0,0,36.56,30.09A105.26,105.26,0,0,0,200,306.8a106.67,106.67,0,0,0,64.35-21.66l-1.25,10.55,5.55.66L271,276.72Z"/><path class="cls-1" d="M285.8,147.38c-1-1.67-2.12-3.32-3.24-4.92l4.58-3.21c1.18,1.68,2.33,3.43,3.42,5.19Zm5.6,10.36c-.83-1.78-1.72-3.55-2.65-5.27l4.92-2.65c1,1.81,1.92,3.68,2.79,5.55Zm4.34,10.93c-.61-1.85-1.29-3.71-2-5.53l5.19-2.06c.77,1.92,1.48,3.88,2.13,5.84Zm3,11.37c-.39-1.91-.84-3.84-1.35-5.73l5.4-1.44c.54,2,1,4,1.43,6Zm1.68,11.65c-.16-1.95-.39-3.92-.67-5.85l5.53-.79c.3,2,.53,4.11.71,6.17Zm5.91,11.94-5.59-.16c0-1,.05-2.09.05-3.11s0-1.86,0-2.79l5.59-.15c0,1,0,2,0,2.94S306.39,202.54,306.36,203.63ZM305.26,216l-5.53-.82c.29-1.93.52-3.9.69-5.85l5.57.49C305.81,211.9,305.56,214,305.26,216Zm-2.53,12.17-5.4-1.45c.51-1.89,1-3.82,1.37-5.73l5.47,1.13C303.75,224.16,303.27,226.2,302.73,228.19Zm-4,11.8-5.18-2.09c.73-1.81,1.41-3.67,2-5.52l5.3,1.77C300.28,236.1,299.55,238.07,298.78,240Zm-5.3,11.24-4.9-2.67c.93-1.72,1.83-3.49,2.67-5.26l5.05,2.39C295.42,247.56,294.47,249.42,293.48,251.23Zm-6.57,10.55-4.56-3.23c1.13-1.6,2.22-3.25,3.26-4.91l4.74,3C289.26,258.35,288.1,260.09,286.91,261.78Z"/><path class="cls-1" d="M116.54,175.49a6.44,6.44,0,1,1,6.43-6.44A6.44,6.44,0,0,1,116.54,175.49Zm12-6.44a12,12,0,1,0-12,12A12,12,0,0,0,128.56,169.05Z"/><path class="cls-1" d="M199.91,236.38a6.44,6.44,0,1,1,6.43-6.44A6.44,6.44,0,0,1,199.91,236.38Zm0-18.46a12,12,0,1,0,12,12A12,12,0,0,0,199.91,217.92Z"/></svg>