<svg id="Capa_1" data-name="Capa 1" xmlns="http://www.w3.org/2000/svg" viewBox="0 0 400 400"><defs><style>.cls-1{fill:#000068;}.cls-2{fill:none;}</style></defs><title>Seguro</title><path class="cls-1" d="M271,300.61H129a13,13,0,0,1-13-13v-104a13,13,0,0,1,13-13H271a13,13,0,0,1,13,13v104a13,13,0,0,1-13,13M129,176.78a6.89,6.89,0,0,0-6.88,6.89v104a6.89,6.89,0,0,0,6.88,6.88H271a6.89,6.89,0,0,0,6.88-6.88v-104a6.89,6.89,0,0,0-6.88-6.89Zm71.1,92.72h-.18a12.11,12.11,0,0,1-12.1-12.09v-21.5a19.23,19.23,0,1,1,24.38,0v21.5A12.11,12.11,0,0,1,200.09,269.5ZM200,207.89a13.15,13.15,0,0,0-7.43,24l1.31.91v24.61a6,6,0,0,0,6,6h.18a6,6,0,0,0,6-6V232.8l1.31-.91a13.15,13.15,0,0,0-7.43-24Z"/><rect id="SVGID" class="cls-2" x="116.03" y="170.35" width="167.93" height="130.26"/><path class="cls-1" d="M268.1,176.78H239.52v-9.29a39.52,39.52,0,0,0-79,0v9.29H131.9v-9.29a68.11,68.11,0,0,1,135.74-8h.41l.05,6.45v10.83m-22.51-6.07H262V165l-.17-2.27A62,62,0,0,0,138,167.49v3.22h16.44v-3.22a45.59,45.59,0,0,1,91.18,0Z"/></svg>