<svg id="Capa_1" data-name="Capa 1" xmlns="http://www.w3.org/2000/svg" viewBox="0 0 400 400"><defs><style>.cls-1{fill:#000068;}</style></defs><title>USB</title><path class="cls-1" d="M194.87,288.6a40.89,40.89,0,1,0-41-40.89,41,41,0,0,0,41,40.89m0-75a34.08,34.08,0,1,1-34.2,34.08A34.18,34.18,0,0,1,194.87,213.63Z"/><path class="cls-1" d="M140.15,244.3a3.82,3.82,0,0,0,.07.68c0,.9-.07,1.81-.07,2.73a54.72,54.72,0,0,0,109.44,0c0-.92,0-1.83-.07-2.73a3.82,3.82,0,0,0,.07-.68V172.74a3.42,3.42,0,0,0,3.42-3.41V159.11h6.84a3.42,3.42,0,0,0,3.42-3.41V121.62a3.42,3.42,0,0,0-3.42-3.41V106.29a8.55,8.55,0,0,0-17.1,0v11.92h-6.84V106.29a8.55,8.55,0,0,0-17.1,0v11.92a3.42,3.42,0,0,0-3.42,3.41V155.7a3.42,3.42,0,0,0,3.42,3.41h6.84v10.22a3.42,3.42,0,0,0,3.42,3.41v32.44a54.74,54.74,0,0,0-68.4,0V166.71a35,35,0,0,0,3.42-15v-6.19a3.41,3.41,0,0,0-3.42-3.41V131.85a3.41,3.41,0,0,0-3.42-3.41H143a3.42,3.42,0,0,0-3.42,3.41v10.27a3.4,3.4,0,0,0-2.86,3.36v6.19a35.13,35.13,0,0,0,3.42,15V244.3m102.6-23a54.67,54.67,0,0,0-6.84-9.65V172.74h6.84Zm3.42-55.42H232.49v-6.81h13.68Zm3.42-59.63a1.71,1.71,0,1,1,3.42,0v11.92h-3.42Zm-23.94,0a1.71,1.71,0,1,1,3.42,0v11.92h-3.42Zm-3.42,46V125h34.2v27.26ZM194.87,200A47.71,47.71,0,1,1,147,247.71,47.85,47.85,0,0,1,194.87,200ZM147,221.34v-52h6.84v42.36A54.67,54.67,0,0,0,147,221.34Zm-.56-86.09h7.4v6.82h-7.4Zm-2.86,13.63h13.68v2.79a28.29,28.29,0,0,1-2.18,10.85h-9.31a28.12,28.12,0,0,1-2.19-10.85Z"/><path class="cls-1" d="M174.35,135.25h6.39l-2.94,23.43a3.4,3.4,0,0,0,2.23,3.63,3.35,3.35,0,0,0,1.16.21,3.46,3.46,0,0,0,2.89-1.58L208,123.45a3.41,3.41,0,0,0-2.89-5.24H200.4l7.79-15.51a3.4,3.4,0,0,0-3.06-4.93H184.61a3.41,3.41,0,0,0-3.24,2.33l-10.26,30.67a3.4,3.4,0,0,0,3.24,4.48m12.73-30.67H199.6l-7.79,15.52a3.41,3.41,0,0,0,3.06,4.93h4l-12.43,19.46L188,132.27a3.37,3.37,0,0,0-.83-2.68,3.41,3.41,0,0,0-2.56-1.15H179.1Z"/></svg>