<svg id="Capa_1" data-name="Capa 1" xmlns="http://www.w3.org/2000/svg" viewBox="0 0 400 400"><defs><style>.cls-1{fill:#000068;}</style></defs><title>Velocidad</title><path class="cls-1" d="M202.7,151.52V139.21a2.71,2.71,0,1,0-5.41,0v12.31a2.71,2.71,0,1,0,5.41,0Z"/><path class="cls-1" d="M167.6,147.18a2.71,2.71,0,1,0-4.69,2.72l6.14,10.66a2.71,2.71,0,1,0,4.69-2.72Z"/><path class="cls-1" d="M151.81,177.84l-10.63-6.16a2.71,2.71,0,0,0-2.71,4.7l10.64,6.15a2.71,2.71,0,0,0,2.7-4.69Z"/><path class="cls-1" d="M142.8,206.13H130.51a2.71,2.71,0,0,0,0,5.42H142.8a2.71,2.71,0,0,0,0-5.42Z"/><path class="cls-1" d="M269.49,206.13H257.2a2.71,2.71,0,0,0,0,5.42h12.29a2.71,2.71,0,0,0,0-5.42Z"/><path class="cls-1" d="M262.52,172.67a2.7,2.7,0,0,0-3.7-1l-10.64,6.15a2.73,2.73,0,0,0-1,3.71,2.7,2.7,0,0,0,3.7,1l10.64-6.15A2.72,2.72,0,0,0,262.52,172.67Z"/><path class="cls-1" d="M236.09,146.19a2.7,2.7,0,0,0-3.69,1l-6.14,10.66a2.71,2.71,0,1,0,4.68,2.72l6.14-10.66A2.71,2.71,0,0,0,236.09,146.19Z"/><path class="cls-1" d="M279.17,192.53a80.84,80.84,0,0,0-22-40.95,82,82,0,0,0-11.95-9.89,81.12,81.12,0,0,0-13.73-7.46,80.79,80.79,0,0,0-62.92,0,80.92,80.92,0,0,0-49.35,74.61c0,.91,0,1.81,0,2.71H126c0-.9-.05-1.8-.05-2.71a74,74,0,1,1,148,0c0,.91,0,1.81-.05,2.71h6.81c0-.9,0-1.8,0-2.71A81.59,81.59,0,0,0,279.17,192.53Z"/><path class="cls-1" d="M227.09,178.21l-24.8,14.49a9.57,9.57,0,0,0-2.29-.28,9.69,9.69,0,1,0,9.66,9.69,9.23,9.23,0,0,0-.17-1.83l18-21.56a.32.32,0,0,0,0-.43A.34.34,0,0,0,227.09,178.21Z"/><path class="cls-1" d="M132.41,267.42a1.26,1.26,0,0,1-.91-.37,1.21,1.21,0,0,1-.39-.93v-5.89h-16.2a1.29,1.29,0,0,1-.91-.36,1.24,1.24,0,0,1-.39-.94v-5a2,2,0,0,1,.18-.86q.18-.39.39-.75l15.16-20.52a2.28,2.28,0,0,1,1.92-.89h7.55a1.38,1.38,0,0,1,1,.37,1.21,1.21,0,0,1,.39.94v20.2h4.58a1.28,1.28,0,0,1,1,.39,1.31,1.31,0,0,1,.36.91v5.16a1.24,1.24,0,0,1-.39.94,1.29,1.29,0,0,1-.91.36h-4.63v5.89a1.21,1.21,0,0,1-.39.93,1.34,1.34,0,0,1-1,.37Zm-9.84-14.58h8.74V240.55Z"/><path class="cls-1" d="M166.36,267.94a20.25,20.25,0,0,1-8.51-1.64,12.44,12.44,0,0,1-5.52-4.79,15.54,15.54,0,0,1-2.16-7.68c0-1.5-.06-3.08-.06-4.77s0-3.29.06-4.82a14.74,14.74,0,0,1,2.18-7.49,12.55,12.55,0,0,1,5.57-4.69,20.4,20.4,0,0,1,8.44-1.62,22.93,22.93,0,0,1,6.93,1,15.9,15.9,0,0,1,5.07,2.58,11.59,11.59,0,0,1,3.13,3.54,8.35,8.35,0,0,1,1.12,3.8.88.88,0,0,1-.29.78,1.12,1.12,0,0,1-.81.31h-7.6a1.64,1.64,0,0,1-.86-.18,1.48,1.48,0,0,1-.49-.55,8.43,8.43,0,0,0-1.07-1.64,5.85,5.85,0,0,0-1.93-1.48,7,7,0,0,0-3.2-.63,6.61,6.61,0,0,0-4.66,1.56c-1.13,1.05-1.74,2.71-1.85,5q-.15,4.49,0,9.07.17,3.65,1.93,5.25a6.66,6.66,0,0,0,4.68,1.62,8.67,8.67,0,0,0,3.52-.68,5.28,5.28,0,0,0,2.42-2.11,6.88,6.88,0,0,0,.89-3.67v-1h-4.9a1.33,1.33,0,0,1-1.35-1.35v-3.85a1.33,1.33,0,0,1,1.35-1.36h13.12a1.21,1.21,0,0,1,.94.39,1.38,1.38,0,0,1,.37,1v5.93a14,14,0,0,1-2,7.66,13.16,13.16,0,0,1-5.76,4.87A20.89,20.89,0,0,1,166.36,267.94Z"/><path class="cls-1" d="M201.2,267.42a1.25,1.25,0,0,1-1.3-1.3V232.27a1.27,1.27,0,0,1,.36-.94,1.29,1.29,0,0,1,.94-.37h6.87a1.3,1.3,0,0,1,.91.37,1.21,1.21,0,0,1,.39.94v27.28H225.1a1.3,1.3,0,0,1,1,.39,1.34,1.34,0,0,1,.39,1v5.21a1.21,1.21,0,0,1-.39.93,1.33,1.33,0,0,1-1,.37Z"/><path class="cls-1" d="M234.73,267.42a1.26,1.26,0,0,1-1.3-1.3v-27h-9.27a1.21,1.21,0,0,1-.93-.39,1.26,1.26,0,0,1-.37-.91v-5.57a1.24,1.24,0,0,1,.37-.94,1.27,1.27,0,0,1,.93-.37h28a1.31,1.31,0,0,1,.94.37,1.27,1.27,0,0,1,.36.94v5.57a1.29,1.29,0,0,1-.36.91,1.24,1.24,0,0,1-.94.39h-9.27v27a1.26,1.26,0,0,1-1.3,1.3Z"/><path class="cls-1" d="M259.52,267.42a1.25,1.25,0,0,1-1.3-1.3V232.27a1.27,1.27,0,0,1,.36-.94,1.31,1.31,0,0,1,.94-.37h24.32a1.31,1.31,0,0,1,.94.37,1.27,1.27,0,0,1,.36.94v4.89a1.28,1.28,0,0,1-.36.94,1.3,1.3,0,0,1-.94.36H267.23v7h15.46a1.21,1.21,0,0,1,.94.39,1.4,1.4,0,0,1,.37,1v4.53a1.3,1.3,0,0,1-.37.91,1.21,1.21,0,0,1-.94.39H267.23v7.24h17a1.25,1.25,0,0,1,1.3,1.3v4.9a1.26,1.26,0,0,1-1.3,1.3Z"/></svg>